<mxfile host="app.diagrams.net" modified="2021-05-27T09:17:51.612Z" agent="5.0 (Macintosh; Intel Mac OS X 10_15_7) AppleWebKit/537.36 (KHTML, like Gecko) Chrome/90.0.4430.212 Safari/537.36" etag="DjHlntEGmXAg7zDcX6UJ" version="14.7.0" type="github">
  <diagram id="wu-liDddrrO4jHqRr5Ok" name="Page-1">
    <mxGraphModel dx="2590" dy="1443" grid="1" gridSize="10" guides="1" tooltips="1" connect="1" arrows="1" fold="1" page="1" pageScale="1" pageWidth="2336" pageHeight="1654" math="0" shadow="0">
      <root>
        <mxCell id="0" />
        <mxCell id="1" parent="0" />
        <mxCell id="6hpQYFgbbhiJDAeSl_aR-1" value="" style="rounded=0;whiteSpace=wrap;html=1;strokeWidth=2;strokeColor=#82b366;fillColor=#CCFFE6;" parent="1" vertex="1">
          <mxGeometry x="590" y="750" width="1120" height="420" as="geometry" />
        </mxCell>
        <mxCell id="6hpQYFgbbhiJDAeSl_aR-4" value="" style="rounded=0;whiteSpace=wrap;html=1;dashed=1;fillColor=#7EA6E0;" parent="1" vertex="1">
          <mxGeometry x="1490" y="785" width="190" height="350" as="geometry" />
        </mxCell>
        <mxCell id="xx3EHc3nn1EWEG3zne6j-10" value="" style="rounded=0;whiteSpace=wrap;html=1;" vertex="1" parent="1">
          <mxGeometry x="1500" y="812.5" width="170" height="167.5" as="geometry" />
        </mxCell>
        <mxCell id="xx3EHc3nn1EWEG3zne6j-7" value="" style="rounded=0;whiteSpace=wrap;html=1;" vertex="1" parent="1">
          <mxGeometry x="1508.5" y="1005" width="151.5" height="95" as="geometry" />
        </mxCell>
        <mxCell id="6hpQYFgbbhiJDAeSl_aR-2" value="" style="rounded=0;whiteSpace=wrap;html=1;dashed=1;fillColor=#99CCFF;" parent="1" vertex="1">
          <mxGeometry x="610" y="785" width="540" height="350" as="geometry" />
        </mxCell>
        <mxCell id="6hpQYFgbbhiJDAeSl_aR-82" style="edgeStyle=orthogonalEdgeStyle;rounded=0;orthogonalLoop=1;jettySize=auto;html=1;" parent="1" source="6hpQYFgbbhiJDAeSl_aR-6" target="6hpQYFgbbhiJDAeSl_aR-80" edge="1">
          <mxGeometry relative="1" as="geometry">
            <Array as="points">
              <mxPoint x="540" y="845" />
              <mxPoint x="540" y="210" />
            </Array>
          </mxGeometry>
        </mxCell>
        <mxCell id="6hpQYFgbbhiJDAeSl_aR-83" value="API" style="edgeLabel;html=1;align=center;verticalAlign=middle;resizable=0;points=[];" parent="6hpQYFgbbhiJDAeSl_aR-82" vertex="1" connectable="0">
          <mxGeometry x="-0.2165" y="1" relative="1" as="geometry">
            <mxPoint as="offset" />
          </mxGeometry>
        </mxCell>
        <mxCell id="6hpQYFgbbhiJDAeSl_aR-6" value="直播" style="rounded=0;whiteSpace=wrap;html=1;" parent="1" vertex="1">
          <mxGeometry x="640" y="815" width="120" height="60" as="geometry" />
        </mxCell>
        <mxCell id="6hpQYFgbbhiJDAeSl_aR-7" value="视频/音频/文章" style="rounded=0;whiteSpace=wrap;html=1;" parent="1" vertex="1">
          <mxGeometry x="640" y="895" width="120" height="60" as="geometry" />
        </mxCell>
        <mxCell id="6hpQYFgbbhiJDAeSl_aR-71" style="edgeStyle=orthogonalEdgeStyle;rounded=0;orthogonalLoop=1;jettySize=auto;html=1;" parent="1" source="6hpQYFgbbhiJDAeSl_aR-8" target="6hpQYFgbbhiJDAeSl_aR-63" edge="1">
          <mxGeometry relative="1" as="geometry">
            <Array as="points">
              <mxPoint x="540" y="1008" />
            </Array>
          </mxGeometry>
        </mxCell>
        <mxCell id="6hpQYFgbbhiJDAeSl_aR-72" value="API" style="edgeLabel;html=1;align=center;verticalAlign=middle;resizable=0;points=[];" parent="6hpQYFgbbhiJDAeSl_aR-71" vertex="1" connectable="0">
          <mxGeometry x="-0.0016" y="4" relative="1" as="geometry">
            <mxPoint as="offset" />
          </mxGeometry>
        </mxCell>
        <mxCell id="6hpQYFgbbhiJDAeSl_aR-8" value="修改用户信息/授权登录" style="rounded=0;whiteSpace=wrap;html=1;" parent="1" vertex="1">
          <mxGeometry x="640" y="980" width="120" height="55" as="geometry" />
        </mxCell>
        <mxCell id="qArD27X4CnHjqWXNyWbl-20" style="edgeStyle=orthogonalEdgeStyle;rounded=0;orthogonalLoop=1;jettySize=auto;html=1;entryX=0.5;entryY=0;entryDx=0;entryDy=0;" parent="1" source="6hpQYFgbbhiJDAeSl_aR-9" target="qArD27X4CnHjqWXNyWbl-16" edge="1">
          <mxGeometry relative="1" as="geometry" />
        </mxCell>
        <mxCell id="6hpQYFgbbhiJDAeSl_aR-9" value="评论" style="rounded=0;whiteSpace=wrap;html=1;" parent="1" vertex="1">
          <mxGeometry x="640" y="1055" width="120" height="60" as="geometry" />
        </mxCell>
        <mxCell id="6hpQYFgbbhiJDAeSl_aR-10" value="运营位/快捷入口/弹窗/启动页" style="rounded=0;whiteSpace=wrap;html=1;" parent="1" vertex="1">
          <mxGeometry x="940" y="817.5" width="170" height="55" as="geometry" />
        </mxCell>
        <mxCell id="6hpQYFgbbhiJDAeSl_aR-108" style="edgeStyle=orthogonalEdgeStyle;rounded=0;orthogonalLoop=1;jettySize=auto;html=1;entryX=0.75;entryY=1;entryDx=0;entryDy=0;" parent="1" source="6hpQYFgbbhiJDAeSl_aR-12" target="6hpQYFgbbhiJDAeSl_aR-98" edge="1">
          <mxGeometry relative="1" as="geometry">
            <Array as="points">
              <mxPoint x="840" y="730" />
              <mxPoint x="1925" y="730" />
            </Array>
          </mxGeometry>
        </mxCell>
        <mxCell id="6hpQYFgbbhiJDAeSl_aR-109" value="Socket" style="edgeLabel;html=1;align=center;verticalAlign=middle;resizable=0;points=[];" parent="6hpQYFgbbhiJDAeSl_aR-108" vertex="1" connectable="0">
          <mxGeometry x="0.3973" y="-2" relative="1" as="geometry">
            <mxPoint as="offset" />
          </mxGeometry>
        </mxCell>
        <mxCell id="6hpQYFgbbhiJDAeSl_aR-12" value="行情" style="rounded=0;whiteSpace=wrap;html=1;" parent="1" vertex="1">
          <mxGeometry x="785" y="817.5" width="100" height="60" as="geometry" />
        </mxCell>
        <mxCell id="qArD27X4CnHjqWXNyWbl-3" style="edgeStyle=orthogonalEdgeStyle;rounded=0;orthogonalLoop=1;jettySize=auto;html=1;" parent="1" source="qArD27X4CnHjqWXNyWbl-1" target="6hpQYFgbbhiJDAeSl_aR-13" edge="1">
          <mxGeometry relative="1" as="geometry" />
        </mxCell>
        <mxCell id="qArD27X4CnHjqWXNyWbl-7" value="API" style="edgeLabel;html=1;align=center;verticalAlign=middle;resizable=0;points=[];" parent="qArD27X4CnHjqWXNyWbl-3" connectable="0" vertex="1">
          <mxGeometry x="0.2022" y="-1" relative="1" as="geometry">
            <mxPoint as="offset" />
          </mxGeometry>
        </mxCell>
        <mxCell id="6hpQYFgbbhiJDAeSl_aR-13" value="自选" style="rounded=0;whiteSpace=wrap;html=1;" parent="1" vertex="1">
          <mxGeometry x="940" y="972.5" width="170" height="62.5" as="geometry" />
        </mxCell>
        <mxCell id="6hpQYFgbbhiJDAeSl_aR-17" value="视频/音频/文章" style="rounded=0;whiteSpace=wrap;html=1;" parent="1" vertex="1">
          <mxGeometry x="1508.5" y="827.5" width="153" height="35" as="geometry" />
        </mxCell>
        <mxCell id="6hpQYFgbbhiJDAeSl_aR-18" value="运营位/快捷入口/弹窗" style="rounded=0;whiteSpace=wrap;html=1;" parent="1" vertex="1">
          <mxGeometry x="1508.5" y="880" width="153" height="40" as="geometry" />
        </mxCell>
        <mxCell id="6hpQYFgbbhiJDAeSl_aR-19" value="相关活动页面" style="rounded=0;whiteSpace=wrap;html=1;" parent="1" vertex="1">
          <mxGeometry x="1508.5" y="937.5" width="153" height="35" as="geometry" />
        </mxCell>
        <mxCell id="xx3EHc3nn1EWEG3zne6j-11" style="edgeStyle=orthogonalEdgeStyle;rounded=0;orthogonalLoop=1;jettySize=auto;html=1;entryX=0;entryY=0.5;entryDx=0;entryDy=0;" edge="1" parent="1" source="6hpQYFgbbhiJDAeSl_aR-21" target="xx3EHc3nn1EWEG3zne6j-10">
          <mxGeometry relative="1" as="geometry">
            <Array as="points">
              <mxPoint x="1210" y="896" />
            </Array>
          </mxGeometry>
        </mxCell>
        <mxCell id="xx3EHc3nn1EWEG3zne6j-12" value="API" style="edgeLabel;html=1;align=center;verticalAlign=middle;resizable=0;points=[];" vertex="1" connectable="0" parent="xx3EHc3nn1EWEG3zne6j-11">
          <mxGeometry x="-0.8023" y="-1" relative="1" as="geometry">
            <mxPoint y="71" as="offset" />
          </mxGeometry>
        </mxCell>
        <mxCell id="6hpQYFgbbhiJDAeSl_aR-21" value="" style="rounded=0;whiteSpace=wrap;html=1;strokeWidth=2;strokeColor=#0000CC;fillColor=#CCFFE6;" parent="1" vertex="1">
          <mxGeometry x="608" y="440" width="1120" height="260" as="geometry" />
        </mxCell>
        <mxCell id="6hpQYFgbbhiJDAeSl_aR-23" value="自选相关" style="rounded=0;whiteSpace=wrap;html=1;" parent="1" vertex="1">
          <mxGeometry x="1515" y="1020" width="140" height="30" as="geometry" />
        </mxCell>
        <mxCell id="qArD27X4CnHjqWXNyWbl-6" style="edgeStyle=orthogonalEdgeStyle;rounded=0;orthogonalLoop=1;jettySize=auto;html=1;exitX=0.525;exitY=0;exitDx=0;exitDy=0;exitPerimeter=0;" parent="1" source="qArD27X4CnHjqWXNyWbl-4" target="6hpQYFgbbhiJDAeSl_aR-24" edge="1">
          <mxGeometry relative="1" as="geometry">
            <Array as="points">
              <mxPoint x="868" y="1470" />
              <mxPoint x="860" y="1470" />
            </Array>
          </mxGeometry>
        </mxCell>
        <mxCell id="qArD27X4CnHjqWXNyWbl-8" value="API" style="edgeLabel;html=1;align=center;verticalAlign=middle;resizable=0;points=[];" parent="qArD27X4CnHjqWXNyWbl-6" connectable="0" vertex="1">
          <mxGeometry x="-0.0022" relative="1" as="geometry">
            <mxPoint y="-130" as="offset" />
          </mxGeometry>
        </mxCell>
        <mxCell id="6hpQYFgbbhiJDAeSl_aR-24" value="群聊、权限" style="rounded=0;whiteSpace=wrap;html=1;" parent="1" vertex="1">
          <mxGeometry x="810" y="1055" width="100" height="45" as="geometry" />
        </mxCell>
        <mxCell id="6hpQYFgbbhiJDAeSl_aR-25" value="cms管理后台" style="text;html=1;strokeColor=none;align=center;verticalAlign=middle;whiteSpace=wrap;rounded=0;fillColor=#ffffff;" parent="1" vertex="1">
          <mxGeometry x="1490" y="440" width="80" height="20" as="geometry" />
        </mxCell>
        <mxCell id="6hpQYFgbbhiJDAeSl_aR-28" value="APP" style="text;html=1;strokeColor=none;fillColor=none;align=center;verticalAlign=middle;whiteSpace=wrap;rounded=0;dashed=1;" parent="1" vertex="1">
          <mxGeometry x="840" y="770" width="40" height="20" as="geometry" />
        </mxCell>
        <mxCell id="6hpQYFgbbhiJDAeSl_aR-32" value="H5" style="text;html=1;strokeColor=none;fillColor=none;align=center;verticalAlign=middle;whiteSpace=wrap;rounded=0;dashed=1;" parent="1" vertex="1">
          <mxGeometry x="1565" y="765" width="40" height="20" as="geometry" />
        </mxCell>
        <mxCell id="6hpQYFgbbhiJDAeSl_aR-39" style="edgeStyle=orthogonalEdgeStyle;rounded=0;orthogonalLoop=1;jettySize=auto;html=1;exitX=0;exitY=0.5;exitDx=0;exitDy=0;entryX=0;entryY=0.5;entryDx=0;entryDy=0;" parent="1" source="6hpQYFgbbhiJDAeSl_aR-33" target="6hpQYFgbbhiJDAeSl_aR-6" edge="1">
          <mxGeometry relative="1" as="geometry" />
        </mxCell>
        <mxCell id="6hpQYFgbbhiJDAeSl_aR-55" value="api" style="edgeLabel;html=1;align=center;verticalAlign=middle;resizable=0;points=[];" parent="6hpQYFgbbhiJDAeSl_aR-39" vertex="1" connectable="0">
          <mxGeometry x="-0.3854" y="-1" relative="1" as="geometry">
            <mxPoint as="offset" />
          </mxGeometry>
        </mxCell>
        <mxCell id="6hpQYFgbbhiJDAeSl_aR-93" style="edgeStyle=orthogonalEdgeStyle;rounded=0;orthogonalLoop=1;jettySize=auto;html=1;entryX=0.824;entryY=0.99;entryDx=0;entryDy=0;entryPerimeter=0;" parent="1" source="6hpQYFgbbhiJDAeSl_aR-33" target="6hpQYFgbbhiJDAeSl_aR-80" edge="1">
          <mxGeometry relative="1" as="geometry">
            <Array as="points">
              <mxPoint x="700" y="420" />
              <mxPoint x="1167" y="420" />
            </Array>
          </mxGeometry>
        </mxCell>
        <mxCell id="6hpQYFgbbhiJDAeSl_aR-94" value="API" style="edgeLabel;html=1;align=center;verticalAlign=middle;resizable=0;points=[];" parent="6hpQYFgbbhiJDAeSl_aR-93" vertex="1" connectable="0">
          <mxGeometry x="0.0711" y="-1" relative="1" as="geometry">
            <mxPoint as="offset" />
          </mxGeometry>
        </mxCell>
        <mxCell id="6hpQYFgbbhiJDAeSl_aR-33" value="直播管理" style="rounded=0;whiteSpace=wrap;html=1;" parent="1" vertex="1">
          <mxGeometry x="620" y="460" width="110" height="60" as="geometry" />
        </mxCell>
        <mxCell id="6hpQYFgbbhiJDAeSl_aR-76" style="edgeStyle=orthogonalEdgeStyle;rounded=0;orthogonalLoop=1;jettySize=auto;html=1;entryX=0;entryY=0.5;entryDx=0;entryDy=0;" parent="1" source="6hpQYFgbbhiJDAeSl_aR-34" target="6hpQYFgbbhiJDAeSl_aR-7" edge="1">
          <mxGeometry relative="1" as="geometry">
            <Array as="points">
              <mxPoint x="510" y="555" />
              <mxPoint x="510" y="925" />
            </Array>
          </mxGeometry>
        </mxCell>
        <mxCell id="6hpQYFgbbhiJDAeSl_aR-77" value="api&lt;br&gt;" style="edgeLabel;html=1;align=center;verticalAlign=middle;resizable=0;points=[];" parent="6hpQYFgbbhiJDAeSl_aR-76" vertex="1" connectable="0">
          <mxGeometry x="-0.2492" y="1" relative="1" as="geometry">
            <mxPoint as="offset" />
          </mxGeometry>
        </mxCell>
        <mxCell id="6hpQYFgbbhiJDAeSl_aR-34" value="音频/视频/文章" style="rounded=0;whiteSpace=wrap;html=1;" parent="1" vertex="1">
          <mxGeometry x="620" y="530" width="110" height="50" as="geometry" />
        </mxCell>
        <mxCell id="6hpQYFgbbhiJDAeSl_aR-78" style="edgeStyle=orthogonalEdgeStyle;rounded=0;orthogonalLoop=1;jettySize=auto;html=1;entryX=0;entryY=0.5;entryDx=0;entryDy=0;" parent="1" source="6hpQYFgbbhiJDAeSl_aR-41" target="6hpQYFgbbhiJDAeSl_aR-9" edge="1">
          <mxGeometry relative="1" as="geometry">
            <Array as="points">
              <mxPoint x="560" y="610" />
              <mxPoint x="560" y="1085" />
            </Array>
          </mxGeometry>
        </mxCell>
        <mxCell id="xx3EHc3nn1EWEG3zne6j-18" value="API" style="edgeLabel;html=1;align=center;verticalAlign=middle;resizable=0;points=[];" vertex="1" connectable="0" parent="6hpQYFgbbhiJDAeSl_aR-78">
          <mxGeometry x="0.3398" y="1" relative="1" as="geometry">
            <mxPoint as="offset" />
          </mxGeometry>
        </mxCell>
        <mxCell id="6hpQYFgbbhiJDAeSl_aR-41" value="评论管理" style="rounded=0;whiteSpace=wrap;html=1;" parent="1" vertex="1">
          <mxGeometry x="620" y="590" width="110" height="40" as="geometry" />
        </mxCell>
        <mxCell id="6hpQYFgbbhiJDAeSl_aR-43" value="小程序管理" style="rounded=0;whiteSpace=wrap;html=1;" parent="1" vertex="1">
          <mxGeometry x="620" y="650" width="110" height="40" as="geometry" />
        </mxCell>
        <mxCell id="6hpQYFgbbhiJDAeSl_aR-53" style="edgeStyle=orthogonalEdgeStyle;rounded=0;orthogonalLoop=1;jettySize=auto;html=1;entryX=0.5;entryY=0;entryDx=0;entryDy=0;" parent="1" source="6hpQYFgbbhiJDAeSl_aR-46" target="6hpQYFgbbhiJDAeSl_aR-10" edge="1">
          <mxGeometry relative="1" as="geometry" />
        </mxCell>
        <mxCell id="6hpQYFgbbhiJDAeSl_aR-54" value="API" style="edgeLabel;html=1;align=center;verticalAlign=middle;resizable=0;points=[];" parent="6hpQYFgbbhiJDAeSl_aR-53" vertex="1" connectable="0">
          <mxGeometry x="-0.0128" y="1" relative="1" as="geometry">
            <mxPoint as="offset" />
          </mxGeometry>
        </mxCell>
        <mxCell id="6hpQYFgbbhiJDAeSl_aR-46" value="" style="rounded=0;whiteSpace=wrap;html=1;dashed=1;" parent="1" vertex="1">
          <mxGeometry x="770" y="470" width="140" height="220" as="geometry" />
        </mxCell>
        <mxCell id="6hpQYFgbbhiJDAeSl_aR-47" value="运营位管理" style="rounded=0;whiteSpace=wrap;html=1;" parent="1" vertex="1">
          <mxGeometry x="785" y="480" width="110" height="40" as="geometry" />
        </mxCell>
        <mxCell id="6hpQYFgbbhiJDAeSl_aR-49" value="启动页管理" style="rounded=0;whiteSpace=wrap;html=1;" parent="1" vertex="1">
          <mxGeometry x="785" y="535" width="110" height="40" as="geometry" />
        </mxCell>
        <mxCell id="6hpQYFgbbhiJDAeSl_aR-50" value="弹窗管理" style="rounded=0;whiteSpace=wrap;html=1;" parent="1" vertex="1">
          <mxGeometry x="785" y="640" width="110" height="40" as="geometry" />
        </mxCell>
        <mxCell id="6hpQYFgbbhiJDAeSl_aR-51" value="快捷入口管理" style="rounded=0;whiteSpace=wrap;html=1;" parent="1" vertex="1">
          <mxGeometry x="785" y="590" width="110" height="40" as="geometry" />
        </mxCell>
        <mxCell id="6hpQYFgbbhiJDAeSl_aR-95" style="edgeStyle=orthogonalEdgeStyle;rounded=0;orthogonalLoop=1;jettySize=auto;html=1;exitX=0.5;exitY=1;exitDx=0;exitDy=0;" parent="1" source="6hpQYFgbbhiJDAeSl_aR-81" target="6hpQYFgbbhiJDAeSl_aR-57" edge="1">
          <mxGeometry relative="1" as="geometry">
            <Array as="points">
              <mxPoint x="1620" y="290" />
            </Array>
          </mxGeometry>
        </mxCell>
        <mxCell id="6hpQYFgbbhiJDAeSl_aR-96" value="API" style="edgeLabel;html=1;align=center;verticalAlign=middle;resizable=0;points=[];" parent="6hpQYFgbbhiJDAeSl_aR-95" vertex="1" connectable="0">
          <mxGeometry x="0.7981" y="-3" relative="1" as="geometry">
            <mxPoint x="83" y="-3" as="offset" />
          </mxGeometry>
        </mxCell>
        <mxCell id="6hpQYFgbbhiJDAeSl_aR-57" value="" style="rounded=0;whiteSpace=wrap;html=1;dashed=1;" parent="1" vertex="1">
          <mxGeometry x="1540" y="470" width="140" height="210" as="geometry" />
        </mxCell>
        <mxCell id="6hpQYFgbbhiJDAeSl_aR-58" value="视频采集" style="rounded=0;whiteSpace=wrap;html=1;" parent="1" vertex="1">
          <mxGeometry x="1555" y="480" width="110" height="40" as="geometry" />
        </mxCell>
        <mxCell id="6hpQYFgbbhiJDAeSl_aR-59" value="回放采集" style="rounded=0;whiteSpace=wrap;html=1;" parent="1" vertex="1">
          <mxGeometry x="1555" y="630" width="110" height="40" as="geometry" />
        </mxCell>
        <mxCell id="6hpQYFgbbhiJDAeSl_aR-60" value="音频采集" style="rounded=0;whiteSpace=wrap;html=1;" parent="1" vertex="1">
          <mxGeometry x="1555" y="580" width="110" height="40" as="geometry" />
        </mxCell>
        <mxCell id="6hpQYFgbbhiJDAeSl_aR-61" value="文章采集" style="rounded=0;whiteSpace=wrap;html=1;" parent="1" vertex="1">
          <mxGeometry x="1555" y="530" width="110" height="40" as="geometry" />
        </mxCell>
        <mxCell id="6hpQYFgbbhiJDAeSl_aR-74" style="edgeStyle=orthogonalEdgeStyle;rounded=0;orthogonalLoop=1;jettySize=auto;html=1;entryX=0.5;entryY=0;entryDx=0;entryDy=0;fillColor=#e1d5e7;" parent="1" source="6hpQYFgbbhiJDAeSl_aR-63" target="6hpQYFgbbhiJDAeSl_aR-73" edge="1">
          <mxGeometry relative="1" as="geometry">
            <Array as="points">
              <mxPoint x="450" y="1290" />
              <mxPoint x="450" y="350" />
              <mxPoint x="1010" y="350" />
            </Array>
          </mxGeometry>
        </mxCell>
        <mxCell id="6hpQYFgbbhiJDAeSl_aR-63" value="用户中心" style="rounded=0;whiteSpace=wrap;html=1;strokeWidth=2;strokeColor=#d6b656;fillColor=#fff2cc;" parent="1" vertex="1">
          <mxGeometry x="490" y="1213" width="200" height="117" as="geometry" />
        </mxCell>
        <mxCell id="6hpQYFgbbhiJDAeSl_aR-73" value="用户数据同步" style="rounded=0;whiteSpace=wrap;html=1;" parent="1" vertex="1">
          <mxGeometry x="950" y="480" width="120" height="60" as="geometry" />
        </mxCell>
        <mxCell id="6hpQYFgbbhiJDAeSl_aR-75" value="Redis数据同步" style="text;html=1;align=center;verticalAlign=middle;resizable=0;points=[];autosize=1;strokeColor=none;" parent="1" vertex="1">
          <mxGeometry x="635" y="330" width="90" height="20" as="geometry" />
        </mxCell>
        <mxCell id="6hpQYFgbbhiJDAeSl_aR-87" style="edgeStyle=orthogonalEdgeStyle;rounded=0;orthogonalLoop=1;jettySize=auto;html=1;entryX=0.5;entryY=0;entryDx=0;entryDy=0;" parent="1" source="6hpQYFgbbhiJDAeSl_aR-80" target="6hpQYFgbbhiJDAeSl_aR-33" edge="1">
          <mxGeometry relative="1" as="geometry">
            <Array as="points">
              <mxPoint x="1060" y="380" />
              <mxPoint x="675" y="380" />
            </Array>
          </mxGeometry>
        </mxCell>
        <mxCell id="6hpQYFgbbhiJDAeSl_aR-88" value="RabbitMQ+Api" style="edgeLabel;html=1;align=center;verticalAlign=middle;resizable=0;points=[];" parent="6hpQYFgbbhiJDAeSl_aR-87" vertex="1" connectable="0">
          <mxGeometry x="-0.1882" y="-1" relative="1" as="geometry">
            <mxPoint as="offset" />
          </mxGeometry>
        </mxCell>
        <mxCell id="6hpQYFgbbhiJDAeSl_aR-80" value="直播中台" style="rounded=0;whiteSpace=wrap;html=1;strokeWidth=2;fillColor=#fff2cc;strokeColor=#d6b656;" parent="1" vertex="1">
          <mxGeometry x="590" y="160" width="700" height="130" as="geometry" />
        </mxCell>
        <mxCell id="6hpQYFgbbhiJDAeSl_aR-81" value="采集中台" style="rounded=0;whiteSpace=wrap;html=1;strokeWidth=2;fillColor=#fff2cc;strokeColor=#d6b656;" parent="1" vertex="1">
          <mxGeometry x="1480" y="160" width="280" height="130" as="geometry" />
        </mxCell>
        <mxCell id="6hpQYFgbbhiJDAeSl_aR-92" value="前端相关" style="text;html=1;align=center;verticalAlign=middle;resizable=0;points=[];autosize=1;strokeColor=none;" parent="1" vertex="1">
          <mxGeometry x="1390" y="740" width="60" height="20" as="geometry" />
        </mxCell>
        <mxCell id="6hpQYFgbbhiJDAeSl_aR-102" style="edgeStyle=orthogonalEdgeStyle;rounded=0;orthogonalLoop=1;jettySize=auto;html=1;entryX=0.5;entryY=1;entryDx=0;entryDy=0;" parent="1" source="6hpQYFgbbhiJDAeSl_aR-97" target="6hpQYFgbbhiJDAeSl_aR-98" edge="1">
          <mxGeometry relative="1" as="geometry">
            <Array as="points">
              <mxPoint x="1310" y="720" />
              <mxPoint x="1870" y="720" />
            </Array>
          </mxGeometry>
        </mxCell>
        <mxCell id="6hpQYFgbbhiJDAeSl_aR-104" value="API" style="edgeLabel;html=1;align=center;verticalAlign=middle;resizable=0;points=[];" parent="6hpQYFgbbhiJDAeSl_aR-102" vertex="1" connectable="0">
          <mxGeometry x="0.474" y="4" relative="1" as="geometry">
            <mxPoint as="offset" />
          </mxGeometry>
        </mxCell>
        <mxCell id="6hpQYFgbbhiJDAeSl_aR-97" value="股池管理" style="rounded=0;whiteSpace=wrap;html=1;strokeWidth=1;fillColor=#ffffff;" parent="1" vertex="1">
          <mxGeometry x="1270" y="470" width="80" height="210" as="geometry" />
        </mxCell>
        <mxCell id="xx3EHc3nn1EWEG3zne6j-8" style="edgeStyle=orthogonalEdgeStyle;rounded=0;orthogonalLoop=1;jettySize=auto;html=1;entryX=1;entryY=0.5;entryDx=0;entryDy=0;" edge="1" parent="1" source="6hpQYFgbbhiJDAeSl_aR-98" target="xx3EHc3nn1EWEG3zne6j-7">
          <mxGeometry relative="1" as="geometry">
            <Array as="points">
              <mxPoint x="1900" y="1053" />
              <mxPoint x="1710" y="1053" />
            </Array>
          </mxGeometry>
        </mxCell>
        <mxCell id="xx3EHc3nn1EWEG3zne6j-9" value="API+Socket" style="edgeLabel;html=1;align=center;verticalAlign=middle;resizable=0;points=[];" vertex="1" connectable="0" parent="xx3EHc3nn1EWEG3zne6j-8">
          <mxGeometry x="0.6387" y="1" relative="1" as="geometry">
            <mxPoint as="offset" />
          </mxGeometry>
        </mxCell>
        <mxCell id="6hpQYFgbbhiJDAeSl_aR-98" value="集团行情" style="rounded=0;whiteSpace=wrap;html=1;strokeWidth=2;fillColor=#fff2cc;strokeColor=#d6b656;" parent="1" vertex="1">
          <mxGeometry x="1760" y="450" width="220" height="140" as="geometry" />
        </mxCell>
        <mxCell id="6hpQYFgbbhiJDAeSl_aR-111" style="edgeStyle=orthogonalEdgeStyle;rounded=0;orthogonalLoop=1;jettySize=auto;html=1;exitX=0.25;exitY=1;exitDx=0;exitDy=0;entryX=1;entryY=0.5;entryDx=0;entryDy=0;" parent="1" source="6hpQYFgbbhiJDAeSl_aR-97" target="6hpQYFgbbhiJDAeSl_aR-105" edge="1">
          <mxGeometry relative="1" as="geometry" />
        </mxCell>
        <mxCell id="6hpQYFgbbhiJDAeSl_aR-112" value="API" style="edgeLabel;html=1;align=center;verticalAlign=middle;resizable=0;points=[];" parent="6hpQYFgbbhiJDAeSl_aR-111" vertex="1" connectable="0">
          <mxGeometry x="-0.4988" y="2" relative="1" as="geometry">
            <mxPoint x="-2" y="34" as="offset" />
          </mxGeometry>
        </mxCell>
        <mxCell id="6hpQYFgbbhiJDAeSl_aR-113" style="edgeStyle=orthogonalEdgeStyle;rounded=0;orthogonalLoop=1;jettySize=auto;html=1;exitX=0.25;exitY=1;exitDx=0;exitDy=0;entryX=0.5;entryY=0;entryDx=0;entryDy=0;" parent="1" source="6hpQYFgbbhiJDAeSl_aR-98" target="6hpQYFgbbhiJDAeSl_aR-105" edge="1">
          <mxGeometry relative="1" as="geometry">
            <Array as="points">
              <mxPoint x="1815" y="798" />
              <mxPoint x="1130" y="798" />
              <mxPoint x="1130" y="880" />
              <mxPoint x="1025" y="880" />
            </Array>
          </mxGeometry>
        </mxCell>
        <mxCell id="6hpQYFgbbhiJDAeSl_aR-114" value="Socket" style="edgeLabel;html=1;align=center;verticalAlign=middle;resizable=0;points=[];" parent="6hpQYFgbbhiJDAeSl_aR-113" vertex="1" connectable="0">
          <mxGeometry x="0.0377" y="-1" relative="1" as="geometry">
            <mxPoint x="1" as="offset" />
          </mxGeometry>
        </mxCell>
        <mxCell id="6hpQYFgbbhiJDAeSl_aR-105" value="大咖股池" style="rounded=0;whiteSpace=wrap;html=1;" parent="1" vertex="1">
          <mxGeometry x="940" y="895" width="170" height="60" as="geometry" />
        </mxCell>
        <mxCell id="xx3EHc3nn1EWEG3zne6j-1" style="edgeStyle=orthogonalEdgeStyle;rounded=0;orthogonalLoop=1;jettySize=auto;html=1;entryX=0.5;entryY=1;entryDx=0;entryDy=0;" edge="1" parent="1" source="qArD27X4CnHjqWXNyWbl-1" target="xx3EHc3nn1EWEG3zne6j-7">
          <mxGeometry relative="1" as="geometry" />
        </mxCell>
        <mxCell id="xx3EHc3nn1EWEG3zne6j-2" value="API" style="edgeLabel;html=1;align=center;verticalAlign=middle;resizable=0;points=[];" vertex="1" connectable="0" parent="xx3EHc3nn1EWEG3zne6j-1">
          <mxGeometry x="-0.3112" y="1" relative="1" as="geometry">
            <mxPoint y="1" as="offset" />
          </mxGeometry>
        </mxCell>
        <mxCell id="qArD27X4CnHjqWXNyWbl-1" value="AIGW项目" style="rounded=0;whiteSpace=wrap;html=1;strokeWidth=2;strokeColor=#82b366;fillColor=#CCFFE6;" parent="1" vertex="1">
          <mxGeometry x="920" y="1223" width="210" height="107" as="geometry" />
        </mxCell>
        <mxCell id="xx3EHc3nn1EWEG3zne6j-15" style="edgeStyle=orthogonalEdgeStyle;rounded=0;orthogonalLoop=1;jettySize=auto;html=1;entryX=0.693;entryY=1.006;entryDx=0;entryDy=0;entryPerimeter=0;" edge="1" parent="1" source="qArD27X4CnHjqWXNyWbl-4" target="6hpQYFgbbhiJDAeSl_aR-4">
          <mxGeometry relative="1" as="geometry">
            <mxPoint x="1622" y="1140" as="targetPoint" />
            <Array as="points">
              <mxPoint x="1622" y="1440" />
            </Array>
          </mxGeometry>
        </mxCell>
        <mxCell id="xx3EHc3nn1EWEG3zne6j-16" value="API" style="edgeLabel;html=1;align=center;verticalAlign=middle;resizable=0;points=[];" vertex="1" connectable="0" parent="xx3EHc3nn1EWEG3zne6j-15">
          <mxGeometry x="-0.2121" y="1" relative="1" as="geometry">
            <mxPoint as="offset" />
          </mxGeometry>
        </mxCell>
        <mxCell id="qArD27X4CnHjqWXNyWbl-4" value="CRM系统" style="rounded=0;whiteSpace=wrap;html=1;strokeColor=#d6b656;strokeWidth=2;fillColor=#fff2cc;" parent="1" vertex="1">
          <mxGeometry x="800" y="1370" width="130" height="100" as="geometry" />
        </mxCell>
        <mxCell id="qArD27X4CnHjqWXNyWbl-18" style="edgeStyle=orthogonalEdgeStyle;rounded=0;orthogonalLoop=1;jettySize=auto;html=1;fillColor=#ffe6cc;" parent="1" source="qArD27X4CnHjqWXNyWbl-16" edge="1">
          <mxGeometry relative="1" as="geometry">
            <mxPoint x="620" y="610" as="targetPoint" />
            <Array as="points">
              <mxPoint x="420" y="1440" />
              <mxPoint x="420" y="610" />
            </Array>
          </mxGeometry>
        </mxCell>
        <mxCell id="qArD27X4CnHjqWXNyWbl-19" value="API回调" style="edgeLabel;html=1;align=center;verticalAlign=middle;resizable=0;points=[];" parent="qArD27X4CnHjqWXNyWbl-18" connectable="0" vertex="1">
          <mxGeometry x="-0.4839" y="-1" relative="1" as="geometry">
            <mxPoint as="offset" />
          </mxGeometry>
        </mxCell>
        <mxCell id="qArD27X4CnHjqWXNyWbl-16" value="审核平台" style="rounded=0;whiteSpace=wrap;html=1;strokeColor=#d6b656;strokeWidth=2;fillColor=#fff2cc;" parent="1" vertex="1">
          <mxGeometry x="620" y="1370" width="160" height="100" as="geometry" />
        </mxCell>
        <mxCell id="xx3EHc3nn1EWEG3zne6j-6" value="行情相关" style="rounded=0;whiteSpace=wrap;html=1;" vertex="1" parent="1">
          <mxGeometry x="1515" y="1057.5" width="140" height="30" as="geometry" />
        </mxCell>
      </root>
    </mxGraphModel>
  </diagram>
</mxfile>
